<?xml version="1.0" encoding="UTF-8" standalone="no"?>
<!-- Created with Inkscape (http://www.inkscape.org/) -->

<svg
   xmlns:dc="http://purl.org/dc/elements/1.1/"
   xmlns:cc="http://creativecommons.org/ns#"
   xmlns:rdf="http://www.w3.org/1999/02/22-rdf-syntax-ns#"
   xmlns:svg="http://www.w3.org/2000/svg"
   xmlns="http://www.w3.org/2000/svg"
   xmlns:sodipodi="http://sodipodi.sourceforge.net/DTD/sodipodi-0.dtd"
   xmlns:inkscape="http://www.inkscape.org/namespaces/inkscape"
   width="72"
   height="72"
   id="svg2"
   version="1.1"
   inkscape:version="0.48.0 r9654"
   sodipodi:docname="share.svg"
   inkscape:export-filename="/home/eric/space/congress/res/drawable-mdpi/notifications.png"
   inkscape:export-xdpi="60"
   inkscape:export-ydpi="60">
  <defs
     id="defs4" />
  <sodipodi:namedview
     id="base"
     pagecolor="#ffffff"
     bordercolor="#666666"
     borderopacity="1.0"
     inkscape:pageopacity="0.0"
     inkscape:pageshadow="2"
     inkscape:zoom="7.9195959"
     inkscape:cx="25.79831"
     inkscape:cy="37.568765"
     inkscape:document-units="px"
     inkscape:current-layer="g3818"
     showgrid="true"
     inkscape:window-width="1327"
     inkscape:window-height="806"
     inkscape:window-x="0"
     inkscape:window-y="24"
     inkscape:window-maximized="0">
    <inkscape:grid
       type="xygrid"
       id="grid2985"
       empspacing="5"
       visible="true"
       enabled="true"
       snapvisiblegridlinesonly="true" />
  </sodipodi:namedview>
  <metadata
     id="metadata7">
    <rdf:RDF>
      <cc:Work
         rdf:about="">
        <dc:format>image/svg+xml</dc:format>
        <dc:type
           rdf:resource="http://purl.org/dc/dcmitype/StillImage" />
        <dc:title></dc:title>
      </cc:Work>
    </rdf:RDF>
  </metadata>
  <g
     inkscape:label="Icon"
     inkscape:groupmode="layer"
     id="layer1"
     transform="translate(0,-980.36218)">
    <g
       id="g3818">
      <path
         style="fill:#e1e1e1;fill-opacity:1;fill-rule:nonzero;stroke:#ffffff;stroke-width:1;stroke-miterlimit:4;stroke-opacity:1;stroke-dasharray:none"
         d="M 21 14 C 14.906 14 10 18.906 10 25 L 10 38 C 10 44.094 14.906 49 21 49 L 51 49 C 57.094 49 62 44.094 62 38 L 62 25 C 62 18.906 57.094 14 51 14 L 21 14 z M 35.5 17 C 37.439 17 39 18.756125 39 20.9375 L 39 31.0625 C 39 33.243875 37.439 35 35.5 35 C 33.561 35 32 33.243875 32 31.0625 L 32 20.9375 C 32 18.756125 33.561 17 35.5 17 z M 35.5 38 C 37.438999 38 39 39.561001 39 41.5 C 39 43.438999 37.438999 45 35.5 45 C 33.561001 45 32 43.438999 32 41.5 C 32 39.561001 33.561001 38 35.5 38 z "
         transform="translate(0,980.36218)"
         id="rect3811" />
      <path
         inkscape:connector-curvature="0"
         id="path3813"
         d="m 39,1028.3622 11,9 1,0 1,-9 z"
         style="fill:#e1e1e1;fill-opacity:1;stroke:#e1e1e1;stroke-width:1.06066012px;stroke-linecap:butt;stroke-linejoin:miter;stroke-opacity:0.88235294" />
    </g>
  </g>
  <g
     inkscape:groupmode="layer"
     id="layer3"
     inkscape:label="Glow" />
</svg>
